# xmcd CD database file
#
# Track frame offsets:
#	150
#	14040
#	30637
#	46726
#	61180
#	74894
#	89251
#	103445
#	117635
#	131949
#	144633
#	157809
#	175129
#	187307
#	201235
#	215537
#	229102
#	240289
#	252645
#	266811
#
# Disc length: 3764 seconds
#
# Revision: 0
# Processed by: cddbd v1.5.2PL0 Copyright (c) Steve Scherf et al.
# Submitted via: CDex 1.70beta2
#
DISCID=3c0eb214
DTITLE=Various Artist - Smooth Jazz - The Sounds Of Seduction Series
DYEAR=1900
DGENRE=Jazz
TTITLE0=Street Of Dreams - Stan Kenton
TTITLE1=In A Sentimental Mood - Benny Goodman
TTITLE2=Lover Come Back To Me - Dizzy Gillespie
TTITLE3=Early Autumn - Stan Getz
TTITLE4=Magenta Haze - Duke Ellingtion and His Orchestra
TTITLE5=I Can't Give You Anything But Love - Erroll Garner Trio
TTITLE6='Tis Autmn - Nat King Cole
TTITLE7=April In Paris - Coleman Hawkins and His Orchestra
TTITLE8=For Sentimental Reasons - Ella Fitzgrerald and The Delta Rhythm Boys
TTITLE9=Always - Dave Brubeck Trio
TTITLE10=Bluebird - Miles Davis
TTITLE11=Star Eyes - Charlie Parker and His Orchestra
TTITLE12=I Love You - Sarah Vaughan and Billy Eckstine
TTITLE13=The Continential - George Shearing Quintet
TTITLE14=Everywhere - Woody Herman and His Orchestra
TTITLE15=Night And Day - Billie Holiday
TTITLE16=Parisienne Thorofare - Bud Power
TTITLE17=The Man I Love - Don Byas
TTITLE18=Passion Flower - Jonny hogges
TTITLE19=Laura - Frank Sinatra
EXTD=
EXTT0=
EXTT1=
EXTT2=
EXTT3=
EXTT4=
EXTT5=
EXTT6=
EXTT7=
EXTT8=
EXTT9=
EXTT10=
EXTT11=
EXTT12=
EXTT13=
EXTT14=
EXTT15=
EXTT16=
EXTT17=
EXTT18=
EXTT19=
PLAYORDER=
